<?xml version="1.0" encoding="UTF-8" standalone="no"?>
<!DOCTYPE svg PUBLIC "-//W3C//DTD SVG 1.1//EN" "http://www.w3.org/Graphics/SVG/1.1/DTD/svg11.dtd">
<svg width="100%" height="100%" viewBox="0 0 263 296" version="1.1" xmlns="http://www.w3.org/2000/svg" xmlns:xlink="http://www.w3.org/1999/xlink" xml:space="preserve" xmlns:serif="http://www.serif.com/" style="fill-rule:evenodd;clip-rule:evenodd;stroke-linejoin:round;stroke-miterlimit:1.41421;">
    <g transform="matrix(1,0,0,1,-464.627,-94.3776)">
        <g transform="matrix(1,0,0,1,-1375.86,4.65728)">
            <g transform="matrix(1,0,0,1,713.751,-29.626)">
                <g transform="matrix(1,0,0,1,1029.45,24.9688)">
                    <path d="M160.716,187.915L98.292,187.915C96.451,227.147 97.15,310.347 100.384,315.948C104.509,323.093 220.056,389.805 228.307,389.805C235.382,389.805 321.335,340.762 348.368,322.228L281.035,322.228L279.48,322.285C274.59,322.285 270.686,320.681 267.767,317.472C264.848,314.262 263.389,309.484 263.389,303.136L263.389,250.978L193.225,250.978L193.225,303.136C193.225,309.554 191.693,314.351 188.628,317.524C185.563,320.698 181.622,322.285 176.806,322.285C171.917,322.285 168.013,320.681 165.094,317.472C162.175,314.262 160.715,309.484 160.715,303.136L160.716,187.915Z" style="fill:rgb(249,72,120);"/>
                </g>
                <g transform="matrix(1,0,0,1,1029.45,24.9688)">
                    <path d="M358.324,296.237C360.164,257.125 359.467,173.839 356.231,168.234C352.106,161.089 236.558,94.378 228.307,94.378C221.231,94.378 135.237,143.445 108.29,161.924L175.694,161.924C176.059,161.906 176.43,161.897 176.807,161.897C181.696,161.897 185.655,163.466 188.683,166.605C191.711,169.744 193.225,174.522 193.225,180.94L193.225,225.375L263.389,225.375L263.389,180.94C263.389,174.593 264.867,169.832 267.823,166.658C270.778,163.484 274.664,161.897 279.48,161.897C284.369,161.897 288.328,163.466 291.357,166.605C294.385,169.744 295.899,174.522 295.899,180.94L295.899,296.237L358.324,296.237Z" style="fill:rgb(249,72,120);"/>
                </g>
            </g>
        </g>
    </g>
</svg>
