<?xml version="1.0" encoding="UTF-8" standalone="no"?>
<!DOCTYPE svg PUBLIC "-//W3C//DTD SVG 1.1//EN" "http://www.w3.org/Graphics/SVG/1.1/DTD/svg11.dtd">
<svg width="100%" height="100%" viewBox="0 0 328 369" version="1.1" xmlns="http://www.w3.org/2000/svg" xmlns:xlink="http://www.w3.org/1999/xlink" xml:space="preserve" xmlns:serif="http://www.serif.com/" style="fill-rule:evenodd;clip-rule:evenodd;stroke-linejoin:round;stroke-miterlimit:1.41421;">
    <g transform="matrix(1,0,0,1,-560.216,-52.6354)">
        <g transform="matrix(1,0,0,1,-166.594,-29.9688)">
            <g transform="matrix(1,0,0,1,79.151,-183.542)">
                <path d="M811.266,266.146C821.569,266.146 965.857,349.451 971.009,358.374C976.161,367.296 976.161,533.907 971.009,542.829C965.857,551.752 821.569,635.057 811.266,635.057C800.963,635.057 656.674,551.752 651.522,542.829C646.371,533.907 646.371,367.296 651.522,358.374C656.674,349.451 800.963,266.146 811.266,266.146ZM811.266,302.888C819.516,302.888 935.064,369.599 939.189,376.745C943.315,383.89 943.315,517.313 939.189,524.458C935.064,531.604 819.516,598.315 811.266,598.315C803.015,598.315 687.467,531.604 683.342,524.458C679.217,517.313 679.217,383.89 683.342,376.745C687.467,369.599 803.015,302.888 811.266,302.888Z" style="fill:rgb(249,72,120);"/>
            </g>
            <g transform="matrix(1.31666,0,-3.63803e-06,1.27259,559.156,94.5602)">
                <path d="M224.948,87.498L224.948,122.414L278.238,122.414L278.238,87.498C278.238,82.51 279.36,78.768 281.604,76.274C283.849,73.78 286.8,72.533 290.458,72.533C294.172,72.533 297.178,73.767 299.479,76.233C301.779,78.699 302.929,82.454 302.929,87.498L302.929,183.519C302.929,188.562 301.765,192.331 299.437,194.825C297.109,197.319 294.116,198.566 290.458,198.566C286.745,198.566 283.78,197.305 281.563,194.783C279.346,192.262 278.238,188.507 278.238,183.519L278.238,142.533L224.948,142.533L224.948,183.519C224.948,188.562 223.784,192.331 221.456,194.825C219.129,197.319 216.136,198.566 212.478,198.566C208.764,198.566 205.799,197.305 203.582,194.783C201.365,192.262 200.257,188.507 200.257,183.519L200.257,87.498C200.257,82.51 201.352,78.768 203.541,76.274C205.73,73.78 208.709,72.533 212.478,72.533C216.191,72.533 219.198,73.767 221.498,76.233C223.798,78.699 224.948,82.454 224.948,87.498Z" style="fill:rgb(249,72,120);fill-rule:nonzero;"/>
            </g>
        </g>
    </g>
</svg>
