<?xml version="1.0" standalone="no"?>
<!DOCTYPE svg PUBLIC "-//W3C//DTD SVG 20010904//EN"
 "http://www.w3.org/TR/2001/REC-SVG-20010904/DTD/svg10.dtd">
<svg version="1.0" xmlns="http://www.w3.org/2000/svg"
 width="738.000000pt" height="738.000000pt" viewBox="0 0 738.000000 738.000000"
 preserveAspectRatio="xMidYMid meet">
<metadata>
Created by potrace 1.11, written by Peter Selinger 2001-2013
</metadata>
<g transform="translate(0.000000,738.000000) scale(0.100000,-0.100000)"
fill="#000000" stroke="none">
<path d="M3648 7375 c-3 -4 -12 -8 -20 -9 -20 -5 -239 -103 -278 -125 -8 -5
-80 -42 -160 -82 -80 -41 -147 -76 -150 -79 -6 -6 -5 -5 -145 -80 -55 -30
-122 -66 -148 -82 -26 -15 -50 -28 -52 -28 -4 0 -310 -172 -383 -215 -17 -10
-185 -105 -240 -135 -15 -8 -43 -25 -62 -37 -19 -11 -51 -30 -70 -41 -19 -10
-154 -90 -300 -177 -146 -86 -281 -166 -300 -177 -19 -11 -42 -26 -51 -34 -8
-8 -18 -14 -21 -14 -19 0 -627 -390 -662 -425 -8 -8 -17 -15 -20 -15 -6 0 -51
-37 -87 -71 -37 -36 -61 -304 -74 -807 -2 -100 -7 -187 -10 -192 -3 -6 -1 -10
5 -10 7 0 8 -6 2 -17 -10 -19 -9 -1594 2 -1888 18 -544 37 -752 72 -798 21
-28 130 -109 279 -207 61 -40 136 -90 168 -111 32 -22 59 -39 62 -39 2 0 39
-23 82 -50 43 -28 86 -53 95 -56 10 -4 18 -10 18 -15 0 -5 5 -9 11 -9 7 0 37
-17 68 -37 31 -21 58 -38 61 -38 3 0 25 -13 50 -29 166 -104 477 -286 489
-286 6 0 11 -4 11 -10 0 -5 11 -12 25 -16 14 -3 25 -10 25 -15 0 -5 4 -9 8 -9
10 0 211 -114 229 -130 7 -5 19 -10 28 -10 8 0 15 -3 15 -8 0 -4 21 -18 47
-32 27 -13 85 -46 131 -72 46 -27 88 -48 93 -48 5 0 9 -4 9 -9 0 -5 8 -11 18
-14 9 -3 49 -24 87 -47 39 -22 81 -45 94 -51 13 -5 37 -19 52 -30 16 -11 29
-17 29 -14 0 3 13 -3 29 -14 16 -12 34 -21 39 -21 6 0 12 -3 14 -7 2 -5 23
-18 48 -31 25 -12 99 -51 165 -87 169 -92 425 -218 519 -255 l80 -31 70 22
c39 12 73 26 76 29 3 4 16 11 30 15 40 13 358 173 520 263 30 17 75 41 100 54
25 13 47 25 50 29 3 3 20 11 38 18 17 8 32 17 32 22 0 5 7 9 16 9 9 0 28 8 42
18 15 10 41 24 57 32 17 8 38 21 48 29 9 8 17 10 17 5 0 -5 4 -4 8 2 4 6 36
27 72 46 103 56 481 272 640 366 134 79 606 361 640 382 107 69 293 180 300
180 4 0 10 3 12 8 5 11 66 52 78 52 5 0 10 5 10 10 0 6 4 10 9 10 8 0 131 80
166 107 6 5 22 16 36 25 14 9 32 23 40 30 8 8 29 24 47 37 59 41 70 81 88 326
11 156 17 310 30 750 5 206 6 1431 0 1640 -12 415 -22 662 -31 755 -10 111
-16 165 -20 185 -2 11 -4 30 -4 43 -1 22 -76 111 -94 112 -8 0 -23 11 -57 42
-10 9 -29 22 -41 29 -13 6 -28 16 -33 21 -30 25 -428 277 -558 353 -9 6 -115
69 -235 141 -120 73 -234 141 -253 152 -19 10 -59 33 -88 51 -29 17 -57 31
-62 31 -6 0 -10 3 -10 8 0 4 -21 18 -47 32 -27 13 -67 37 -90 52 -23 15 -44
28 -47 28 -5 0 -170 93 -196 110 -8 6 -28 17 -45 25 -16 9 -37 20 -45 25 -37
24 -292 166 -485 270 -27 15 -77 42 -110 60 -105 58 -177 96 -285 150 -58 29
-112 56 -120 61 -121 70 -322 144 -342 124z m312 -849 c142 -71 315 -162 335
-176 6 -4 60 -33 120 -65 61 -32 115 -62 122 -67 7 -5 27 -17 45 -27 18 -9 42
-22 53 -28 11 -7 65 -38 120 -70 55 -32 103 -57 107 -56 3 1 12 -4 18 -12 7
-8 16 -15 21 -15 5 0 30 -13 56 -29 92 -56 138 -82 156 -88 9 -3 17 -9 17 -14
0 -5 4 -9 10 -9 5 0 49 -24 97 -53 48 -29 95 -56 103 -60 8 -4 27 -15 42 -25
30 -19 125 -77 178 -107 19 -11 61 -37 93 -58 31 -20 60 -37 63 -37 2 0 10 -5
17 -10 7 -6 57 -38 112 -72 55 -34 102 -65 103 -70 2 -4 8 -8 13 -8 14 0 219
-142 219 -152 0 -4 5 -8 11 -8 7 0 20 -10 30 -22 31 -35 37 -68 54 -288 11
-141 31 -937 24 -975 -1 -5 0 -14 1 -20 7 -32 -3 -887 -15 -1210 -7 -181 -22
-389 -31 -427 -1 -5 -2 -16 -3 -27 0 -10 -16 -33 -33 -51 -34 -33 -325 -231
-458 -310 -41 -25 -76 -48 -78 -52 -2 -5 -9 -8 -14 -8 -6 0 -34 -15 -62 -32
-27 -18 -58 -37 -67 -43 -105 -60 -290 -171 -311 -186 -15 -10 -29 -19 -31
-19 -2 0 -64 -35 -138 -78 -74 -43 -154 -90 -179 -104 -25 -14 -77 -44 -117
-67 -40 -22 -77 -41 -82 -41 -5 0 -11 -4 -13 -8 -1 -5 -48 -33 -103 -63 -55
-29 -118 -64 -140 -76 -22 -13 -58 -32 -80 -44 -22 -11 -71 -38 -110 -60 -38
-21 -167 -87 -285 -146 -237 -118 -272 -127 -355 -89 -88 41 -325 159 -400
200 -153 82 -220 119 -288 157 -38 22 -70 39 -72 39 -2 0 -26 13 -53 29 -58
34 -128 73 -202 114 -30 16 -59 33 -65 37 -5 4 -37 22 -70 40 -87 48 -98 54
-109 63 -15 11 -179 107 -182 107 -3 0 -259 151 -304 179 -8 6 -69 43 -135 83
-144 88 -216 133 -232 148 -7 5 -15 10 -18 10 -18 0 -326 218 -340 240 -16 27
-25 107 -40 359 -4 52 -8 98 -11 103 -3 4 0 8 6 8 6 0 8 5 4 11 -24 40 -24
1722 1 2134 18 303 23 330 77 379 60 54 505 346 528 346 5 0 10 4 12 8 2 5 15
15 30 23 22 11 224 132 345 206 13 7 26 13 29 12 4 0 10 3 13 8 3 5 33 25 66
44 33 19 67 39 76 44 14 9 42 25 147 85 15 9 74 42 132 75 57 33 114 65 125
72 11 7 27 15 35 19 8 4 27 16 43 26 15 11 27 16 27 11 0 -4 4 -3 8 2 8 11 18
17 150 87 53 29 99 54 102 57 10 11 491 256 560 285 101 43 112 40 370 -88z"/>
<path d="M2579 5285 c-76 -17 -100 -28 -142 -67 -43 -41 -81 -114 -96 -186
-14 -69 -15 -2596 -1 -2673 34 -177 148 -273 319 -268 161 4 271 93 308 249 9
40 12 146 12 510 0 217 0 404 0 415 0 11 0 71 0 133 1 100 2 112 18 113 10 1
325 2 700 3 449 1 683 -2 684 -9 0 -5 2 -264 4 -575 2 -311 5 -572 7 -580 47
-183 157 -268 335 -258 157 8 255 91 293 248 11 44 14 302 13 1350 0 712 -3
1309 -6 1325 -18 91 -37 132 -84 182 -126 133 -357 130 -475 -7 -79 -91 -80
-103 -83 -665 -2 -269 -4 -492 -4 -495 -1 -3 -316 -5 -701 -5 l-699 0 -1 455
c-1 549 -2 562 -40 644 -61 129 -206 194 -361 161z"/>
</g>
</svg>
