<?xml version="1.0" standalone="no"?>
<!DOCTYPE svg PUBLIC "-//W3C//DTD SVG 20010904//EN"
 "http://www.w3.org/TR/2001/REC-SVG-20010904/DTD/svg10.dtd">
<svg version="1.0" xmlns="http://www.w3.org/2000/svg"
 width="592.000000pt" height="592.000000pt" viewBox="0 0 592.000000 592.000000"
 preserveAspectRatio="xMidYMid meet">
<metadata>
Created by potrace 1.11, written by Peter Selinger 2001-2013
</metadata>
<g transform="translate(0.000000,592.000000) scale(0.100000,-0.100000)"
fill="#000000" stroke="none">
<path d="M2840 5882 c-327 -144 -1368 -731 -2036 -1149 -111 -70 -212 -134
-225 -144 -23 -18 -2 -19 681 -19 559 0 716 -3 758 -13 98 -26 175 -100 209
-201 15 -45 18 -112 21 -553 l3 -503 700 0 699 0 0 463 c0 275 4 488 11 527
20 124 71 200 167 247 50 24 68 28 147 28 70 -1 100 -5 136 -22 69 -31 122
-85 155 -155 l29 -63 5 -1220 5 -1220 621 -3 621 -2 7 87 c3 49 9 372 12 718
8 780 -8 1426 -43 1700 -8 66 -39 96 -241 229 -690 455 -2216 1308 -2335 1305
-12 0 -60 -17 -107 -37z"/>
<path d="M344 3893 c-14 -242 -10 -1700 4 -1968 14 -261 29 -400 46 -432 15
-28 65 -68 211 -166 511 -344 1921 -1147 2249 -1282 107 -44 105 -44 292 45
426 202 1672 917 2116 1215 l82 54 -730 3 c-806 3 -757 -1 -845 68 -47 38 -96
133 -109 215 -6 34 -10 295 -10 603 l0 542 -700 0 -700 0 0 -548 c0 -353 -4
-569 -11 -607 -21 -115 -87 -203 -184 -247 -77 -35 -201 -33 -277 5 -69 34
-120 90 -150 166 l-23 56 -3 1218 -2 1217 -624 0 -624 0 -8 -157z"/>
</g>
</svg>
